<svg width="40" height="40" viewBox="0 0 40 40" fill="none" xmlns="http://www.w3.org/2000/svg">
  <rect width="40" height="40" rx="8" fill="#1E1E2E"/>
  <rect x="6" y="9" width="2" height="22" rx="1" fill="#89B4FA"/>
  <rect x="10" y="11" width="8" height="2" rx="1" fill="#89B4FA"/>
  <rect x="20" y="11" width="12" height="2" rx="1" fill="#A6E3A1"/>
  <rect x="12" y="15" width="6" height="2" rx="1" fill="#89B4FA"/>
  <rect x="20" y="15" width="10" height="2" rx="1" fill="#F9E2AF"/>
  <rect x="12" y="19" width="8" height="2" rx="1" fill="#89B4FA"/>
  <rect x="22" y="19" width="8" height="2" rx="1" fill="#A6E3A1"/>
  <rect x="10" y="23" width="6" height="2" rx="1" fill="#89B4FA"/>
  <rect x="18" y="23" width="14" height="2" rx="1" fill="#CBA6F7"/>
  <rect x="12" y="27" width="8" height="2" rx="1" fill="#89B4FA"/>
  <rect x="22" y="27" width="6" height="2" rx="1" fill="#A6E3A1"/>
</svg>
